#!OML:ASF F:\VICON\USERDATA\INSTALL\rory3\rory3.ASF
:FULLY-SPECIFIED
:DEGREES
593
root 0.605272 17.9392 -0.385707 1.649 -28.9921 0.223011
lowerback -0.86051 -0.59008 -3.83796
upperback -0.635705 -0.762852 1.15762
thorax -0.104375 -0.369025 3.33654
lowerneck -17.7105 -4.31269 -11.7727
upperneck 25.0418 -4.58252 6.80695
head 11.5477 -2.39718 3.80071
rclavicle 3.94349e-014 9.93923e-017
rhumerus -16.0196 52.9367 -77.1127
rradius 124.116
rwrist 36.6767
rhand 10.2315 20.9191
rfingers 7.12502
rthumb 35.3459 -5.55544
lclavicle 3.94349e-014 9.93923e-017
lhumerus -42.2887 -31.1022 102.087
lradius 88.9896
lwrist 10.1788
lhand -15.1563 24.3997
lfingers 7.12502
lthumb 11.014 54.0908
rfemur -7.02134 3.18632 12.0229
rtibia 22.1953
rfoot -16.343 -11.2881
rtoes 1.20744
lfemur -0.127835 0.541105 -22.3241
ltibia 14.9962
lfoot -11.6262 6.22966
ltoes -11.7159
594
root 0.605618 17.9393 -0.384118 1.62986 -29.02 0.196413
lowerback -0.787523 -0.633076 -3.76709
upperback -0.69427 -0.824152 1.14231
thorax -0.201312 -0.396932 3.28149
lowerneck -17.5685 -4.32203 -11.7849
upperneck 24.9572 -4.60901 6.81146
head 11.4907 -2.41106 3.79913
rclavicle -1.40827e-014 -9.64106e-015
rhumerus -15.8633 53.1371 -76.9807
rradius 124.106
rwrist 36.9377
rhand 10.2886 20.4866
rfingers 7.12502
rthumb 35.4 -5.9751
lclavicle -1.40827e-014 -9.64106e-015
lhumerus -42.3872 -31.07 102.147
lradius 89.0296
lwrist 10.0506
lhand -15.0476 24.5107
lfingers 7.12502
lthumb 11.1188 54.1961
rfemur -6.98631 3.18367 12.0518
rtibia 22.1777
rfoot -16.2874 -11.2949
rtoes 0.904367
lfemur -0.0813091 0.603683 -22.2888
ltibia 14.989
lfoot -11.6377 6.16421
ltoes -11.4626
595
root 0.604332 17.9403 -0.389161 1.63888 -28.9771 0.145545
lowerback -0.633363 -0.712665 -3.77805
upperback -0.729128 -0.936439 1.16538
thorax -0.313502 -0.450092 3.31289
lowerneck -17.7547 -4.34085 -11.7072
upperneck 25.0715 -4.62206 6.74351
head 11.5688 -2.41687 3.75956
rclavicle 9.54526e-015 -5.36719e-015
rhumerus -15.5199 53.2358 -76.6728
rradius 124.117
rwrist 36.968
rhand 10.4601 20.1911
rfingers 7.12502
rthumb 35.5626 -6.23173
lclavicle 9.54526e-015 -5.36719e-015
lhumerus -42.2951 -31.0521 102.112
lradius 89.0511
lwrist 10.0852
lhand -15.0158 24.632
lfingers 7.12502
lthumb 11.1496 54.3158
rfemur -6.96303 3.21442 12.1273
rtibia 22.1681
rfoot -16.2732 -11.3436
rtoes 0.798575
lfemur -0.0733341 0.748062 -22.1903
ltibia 14.9736
lfoot -11.6205 5.98069
ltoes -11.4312
596
root 0.603101 17.9379 -0.371887 1.66655 -29.287 0.150208
lowerback -0.83125 -0.664116 -3.66968
upperback -0.726725 -0.864944 1.1335
thorax -0.208136 -0.417076 3.21686
lowerneck -17.9317 -4.38894 -11.6551
upperneck 25.2575 -4.68126 6.69827
head 11.6793 -2.44492 3.72711
rclavicle 1.32704e-014 -1.2921e-015
rhumerus -15.2553 53.1492 -76.4272
rradius 124.114
rwrist 36.7989
rhand 10.7212 19.3795
rfingers 7.12502
rthumb 35.8101 -6.98345
lclavicle 1.32704e-014 -1.2921e-015
lhumerus -42.2496 -31.0976 102.121
lradius 89.0808
lwrist 10.0144
lhand -15.189 24.635
lfingers 7.12502
lthumb 10.9825 54.3277
rfemur -7.01836 3.29594 12.0674
rtibia 22.1459
rfoot -16.1573 -11.1804
rtoes 0.827639
lfemur -0.00955856 0.740314 -22.2764
ltibia 14.9603
lfoot -11.698 6.32428
ltoes -11.3852
597
root 0.601109 17.9357 -0.350432 1.69354 -29.6626 0.162293
lowerback -1.09188 -0.595525 -3.5541
upperback -0.711948 -0.764862 1.09113
thorax -0.0570973 -0.370767 3.10597
lowerneck -17.9804 -4.42006 -11.633
upperneck 25.2937 -4.73417 6.71583
head 11.7085 -2.4645 3.72203
rclavicle 4.05917e-014 8.54774e-015
rhumerus -14.9275 53.0408 -76.2047
rradius 124.016
rwrist 36.6212
rhand 10.809 17.7843
rfingers 7.12502
rthumb 35.8932 -8.55834
lclavicle 4.05917e-014 8.54774e-015
lhumerus -42.2185 -31.0769 102.095
lradius 89.1764
lwrist 9.6918
lhand -14.8521 24.7272
lfingers 7.12502
lthumb 11.3074 54.4024
rfemur -7.07434 3.44587 11.9927
rtibia 22.1151
rfoot -16.0893 -10.9751
rtoes 0.903198
lfemur 0.0615841 0.662765 -22.3892
ltibia 14.9569
lfoot -11.7711 6.77251
ltoes -11.3106
598
root 0.598642 17.9358 -0.345079 1.68559 -29.8052 0.147699
lowerback -1.0892 -0.608386 -3.52366
upperback -0.741082 -0.78272 1.05863
thorax -0.0878973 -0.378798 3.05533
lowerneck -17.9214 -4.40776 -11.5016
upperneck 25.2287 -4.75477 6.68816
head 11.6688 -2.4646 3.68494
rclavicle -3.24291e-014 1.00386e-014
rhumerus -14.7113 53.0742 -76.1365
rradius 123.881
rwrist 36.8434
rhand 11.3664 17.6276
rfingers 7.12502
rthumb 36.4212 -8.58431
lclavicle -3.24291e-014 1.00386e-014
lhumerus -42.1761 -31.0888 101.997
lradius 89.2615
lwrist 9.48137
lhand -14.4638 25.0385
lfingers 7.12502
lthumb 11.6819 54.6928
rfemur -7.06434 3.50999 11.9958
rtibia 22.0941
rfoot -16.0671 -10.8827
rtoes 0.92487
lfemur 0.107839 0.700616 -22.3948
ltibia 14.9564
lfoot -11.794 6.87923
ltoes -11.3309
